<svg xmlns="http://www.w3.org/2000/svg" width="1330" height="587" fill="none"><path fill="#fefefe" d="M1049.51.531c110.28-5.629 271.08 32.14 212.76 177.805-1.68 4.193-5.37 14.988-10.17 15.095l-1.14-1.488c1.02-9.958 3.87-25.376 4.29-34.855.55-13.257-1.2-26.51-5.17-39.168-9.63-30.247-33.87-53.665-61.78-66.923C1066.27-6.97 878.657 33.15 757.247 72.174a1212 1212 0 0 0-205.317 88.869c-24.136 13.199-46.718 28.05-70.186 41.047 18.627-18.521 67.205-48.197 90.63-61.137C717.272 60.914 883.637 7.24 1049.51.531M1155.51 345.156c2.2 1.457 1.69.7 2.38 2.8-3.11 11.68-62.49 52.885-78.11 62.991-158.899 102.837-432.54 196.026-633.716 171.138-51.673-6.397-109.161-21.05-141.804-58.693-2.092-2.558-5-5.688-5.365-8.766 1.454.135 2.721.851 3.752 1.776 8.804 7.897 18.017 16.073 28.686 22.2 25.514 14.641 61.849 24.423 92.048 28.293 194.767 24.94 442.959-49.982 604.339-138.245 30.85-16.682 60.48-34.976 88.73-54.779 10.88-7.575 28.81-22.493 38.31-28.264z"/><path fill="#fefefe" fill-rule="evenodd" d="M638.117 276.567c11.025-1.619 26.483-.009 37.088-.462 44.865-1.388 61.815 3.796 50.88 52.619-6.27 28.003-6.623 44.399-42.338 47.002-10.627.382-24.42-.102-34.147.119-38.505.392-65.401 2.413-55.162-45.853 6.309-29.74 4.977-49.75 43.679-53.425m59.978 24.178c-6.503-4.232-47.639-2.525-56.28-2.459-8.437.998-14.67 4.177-17.392 11.106-3.518 8.935-10.793 36.893-1.021 43.03 6.525 4.094 48.796 2.729 56.678 2.4 5.04-.717 6.87-1.161 10.822-3.642 9.78-6.141 17.505-43.722 7.193-50.435" clip-rule="evenodd"/><path fill="#fefefe" d="M533.93 344.888c8.706-14.373 16.628-30.342 25.068-44.935 3.848-6.652 8.437-16.174 13.192-21.949 4.463-2.126 24.449-3.538 26.689.949-1.07 5.135-7.907 15.689-10.828 20.585l-27.814 48.122c-4.576 7.921-11.398 20.523-16.593 27.732-6.538.467-23.273 1.366-28.872-.979-3.933-4.065-14.392-56.817-16.729-66.481-12.712 18.154-26.003 48.01-39.508 65.793-2.539 3.345-24.603 2.078-30.013 1.409-.281-.772-.651-1.722-.842-2.505a5783 5783 0 0 1-19.35-81.773c-.73-3.192-1.474-6.421-1.896-9.589-.346-2.606.093-2.614 1.293-4.801 5.945-.144 20.046-1.003 24.784.924 2.941 3.902 13.661 59.311 15.513 67.85 8.885-14.817 16.688-30.677 25.429-45.581 3.094-4.382 10.358-21.647 15.363-22.722 4.506-.968 26.308-1.275 29.877.793 3.206 4.303 12.759 56.984 15.237 67.158M1205.6 140.522c3.64 2.644 3.83 8.185 4.82 12.357 6.36 26.907 10.19 55.812 17.29 82.458 6.87 2.092 21.73 4.217 29.34 5.497l51.22 8.703c4.35.736 20.08 2.046 21.03 5.726-4.17 3.919-65.26 14.947-75.39 17.496-30.45 7.672-25.24.365-31.01 33.684l-7.65 44.04c-1.43 8.265-3.03 19.16-5.3 27.068l-1.85-.259c-4.14-4.055-17.06-85.172-21.45-97.921-12.62-3.378-96.48-15.934-100.44-19.265l.22-1.352c5.96-3.922 81.96-16.974 94.61-21.269 1.66-.564 4.45-1.498 5.3-3.208 2.71-5.464 3.3-14.878 4.61-20.156 3.22-13 9.98-64.294 14.65-73.599M42.437 275.081c3.622-.077 11.9-.527 15.61-.065 19.43 2.425 62.882-8.612 69.468 17.183.929 3.638.094 10.957-1.939 13.933-3.489 2.167-14.874 1.379-19.233.976-7.332-.677-3.191-4.486-6.687-7.909-3.91-3.829-41.993-2.277-49.55-2.202-4.98.05-10.94-.212-14.564 3.795-1.598 1.767-2.7 4.127-2.53 6.551 1.145 16.39 68.237-1.907 86.214 14.522 4.335 3.961 6.237 9.298 6.365 15.074.23 10.403-2.018 22.199-9.6 29.838-8.832 8.9-20.66 9.355-32.409 9.42l-38.663.077c-16.247.013-44.66 2.314-44.838-21.917-.026-3.506-.626-7.365 1.883-10.075 5.34-1.64 16.896-1.667 22.636-.41 2.494.546 1.761 4.696 3.73 8.238 6.47 5.394 47.036 1.933 57.078 2.712 10.89.844 22.294-10.584 9.631-17.276-3.358-1.775-12.525-.958-16.4-1.201-20.292-1.65-46.805 5.054-64.47-6.341-3.71-2.869-6.876-8.743-6.82-13.524.32-27.431 8.298-39.131 35.088-41.399M991.427 275.084c15.693-.345 31.353.129 47.223-.065 13.77-.167 33.39.925 36.06 18.279.56 3.666.42 10.028-1.93 13.018-4.3 1.408-11.65 1.86-16.14 1.364-6.38-.704-6.62-3.632-10.2-7.837-1.94-2.275-4.94-2.476-7.73-2.684-9.58-.717-41.59-1.189-50.125.418-1.83.345-3.713 1.519-5.063 2.771-1.777 1.653-3.277 4.057-3.3 6.551-.157 17.001 68.868-1.707 86.718 15.756 4.34 4.251 5.75 9.812 5.76 15.726.03 9.948-2.94 21.834-10.29 28.963-9.03 8.772-21.13 8.796-32.89 8.737-20.29.067-41.43.928-61.515-.907-7.913-.722-18.345-7.524-19.838-15.761-.795-4.368-.945-11.965 2.153-15.387 4.042-2.057 20.287-1.964 23.685 2.338.615 2.675.63 3.171 1.957 5.505 7.418 5.824 45.238 2.123 56.058 3.015 2.99.247 11.02-1.156 12.88-4.057 9.71-15.116-8.38-14.452-17.97-14.427-6.09-.093-11.28.311-16.16.019-15.99-.956-35.775 3.568-49.26-6.763-11.28-8.897-6.27-34.746 1.882-43.986 7.748-8.777 17.4-9.892 28.035-10.586M163.475 241.07c5.174-.124 21.429-1.369 24.777 1.723.904 6.936-10.42 61.343-12.389 72.931 18.848-10.904 36.464-26.159 55.322-37.159 3.486-2.034 11.8-2.888 15.756-2.286 4.884.743 19.538-1.801 21.506 2.542-4.211 6.123-52.841 36.488-62.873 43.963 5.541 6.226 28.089 25.036 35.569 31.543 4.766 4.407 18.38 13.844 18.815 19.761l-1.351 1.274c-4.199 1.326-28.488.384-33.701-.171-4.798-3.339-10.769-9.196-15.341-13.132-12.047-10.37-24.028-22.398-36.414-32.23-3.154 14.055-4.567 28.605-8.425 42.44-1.423 5.102-27.094 4.844-26.425.378 6.268-41.825 15.28-83.388 22.55-125.082.428-2.451 1.158-4.47 2.624-6.495M847.862 240.992c4.943-.079 20.798-1.05 24.008 1.235 1.582 7.292-10.193 60.735-11.993 73.283 12.623-7.517 24.713-16.847 36.938-25.104 11.265-7.764 20.152-16.368 34.905-14.033 4.672.741 18.562-2.27 20.392 2.832-4.65 6.375-51.067 34.67-61.882 43.118l-.735.582c7.432 7.912 26.332 23.514 35.482 31.605 3.743 3.174 17.258 13.512 18.63 18.554.27 1.001-.3 1.156-1.192 2.103-4.515 1.475-27.893.42-33.99.164-17.115-14.617-34.223-31.503-51.285-45.528-3.353 14.103-4.485 29.201-8.723 43.025-1.275 4.167-22.005 3.43-25.672 1.483-.78-2.045.532-10.449 1.102-12.576 4.493-16.767 18.525-114.866 24.015-120.743M278.687 276.419c6.716-.148 20.817-1.005 26.394 1.052 3.637 3.11 22.282 62.82 25.26 72.051 10.383-15.692 19.367-32.902 29.538-48.563 5.262-8.103 12.074-26.051 22.627-24.797 5.183.616 16.087-1.228 19.759 2.209.553 3.965-12.226 22.11-14.985 26.419l-25.378 40.078c-12.733 20.304-25.131 42.698-40.603 60.806-6.702 7.845-43.164 12.522-49.291 5.931-.653-4.35 1.18-16.039 3.383-19.896 4.777-2.241 16.226.526 22.73-1.557 8.298-2.659 9.537-4.751 13.965-12.127l-20.847-57.277c-4.444-12.249-9.062-24.643-13.173-37.006-1.278-3.843-.99-4.337.621-7.323M798.46 275.878c5.565.052 21.81-1.864 24.75 2.589.607 3.993-1.388 12.089-2.13 16.278-1.313 7.482-17.49 4.256-23.573 4.467-8.032.28-10.987-.35-18.697 3.189-15.533 7.127-13.133 67.803-22.53 73.142-5.063.094-18.495 1.12-21.833-1.709-.405-5.965 15.008-91.635 17.475-96.299 4.56-1.531 17.055-1.747 22.32-.929.825.129 1.193 1.722 1.65 2.813 3.435.212 9.338-2.159 12.945-2.808 2.94-.53 6.6-.615 9.623-.733"/></svg>